<svg id="svg" xmlns="http://www.w3.org/2000/svg" xmlns:xlink="http://www.w3.org/1999/xlink" width="400" height="209.33333333333334" viewBox="0, 0, 400,209.33333333333334"><g id="svgg"><path id="path0" d="M23.931 100.833 L 11.053 126.667 19.193 126.667 L 27.332 126.667 37.000 107.333 L 46.668 88.000 62.989 88.000 L 79.311 88.000 77.885 90.931 C 77.100 92.542,76.346 94.042,76.210 94.264 C 76.021 94.570,72.146 94.667,60.147 94.667 C 51.449 94.667,44.338 94.704,44.343 94.750 C 44.349 94.796,51.511 102.077,60.260 110.930 L 76.167 127.026 85.665 127.013 L 95.162 127.000 85.500 117.333 L 75.838 107.667 80.670 107.667 L 85.503 107.667 93.585 91.499 C 98.030 82.607,101.667 75.257,101.667 75.166 C 101.667 75.075,87.074 75.000,69.238 75.000 L 36.809 75.000 23.931 100.833 M99.376 93.636 L 89.993 112.272 97.580 119.635 L 105.167 126.999 126.250 127.000 L 147.332 127.000 160.333 101.000 L 173.334 75.000 141.046 75.000 L 108.758 75.000 99.376 93.636 M167.755 100.750 C 160.653 114.912,154.791 126.612,154.727 126.750 C 154.663 126.888,169.136 126.996,186.889 126.992 L 219.167 126.984 227.250 111.013 C 231.696 102.229,235.333 94.958,235.333 94.854 C 235.333 94.751,226.259 94.667,215.168 94.667 L 195.004 94.667 192.002 100.663 C 190.351 103.961,189.000 106.811,189.000 106.996 C 189.000 107.217,193.092 107.333,200.856 107.333 L 212.712 107.333 212.487 108.042 C 212.363 108.432,211.715 109.934,211.047 111.379 L 209.833 114.007 193.583 114.087 C 184.646 114.131,177.333 114.110,177.333 114.041 C 177.333 113.971,180.281 108.084,183.885 100.957 L 190.436 88.000 214.639 88.000 L 238.841 88.000 242.086 81.500 L 245.331 75.000 212.999 75.000 L 180.668 75.000 167.755 100.750 M245.165 89.083 C 241.340 96.829,235.613 108.395,232.439 114.784 C 229.264 121.174,226.667 126.536,226.667 126.701 C 226.667 126.875,240.057 127.000,258.813 127.000 L 290.960 127.000 296.103 116.917 C 298.932 111.371,304.874 99.671,309.307 90.917 L 317.368 75.000 309.205 75.000 L 301.043 75.000 291.376 94.500 L 281.709 114.000 267.104 114.046 C 254.107 114.087,249.844 114.081,248.876 114.019 C 248.716 114.008,248.733 113.813,248.913 113.583 C 249.326 113.059,268.333 75.506,268.333 75.215 C 268.333 75.097,264.685 75.000,260.227 75.000 L 252.121 75.000 245.165 89.083 M311.145 100.848 C 304.099 115.065,298.333 126.765,298.333 126.848 C 298.333 126.932,312.872 127.000,330.641 127.000 L 362.948 127.000 366.282 120.583 L 369.616 114.167 345.114 114.081 C 331.638 114.034,320.665 113.884,320.729 113.748 C 320.793 113.612,321.513 112.188,322.329 110.585 L 323.813 107.671 348.270 107.585 L 372.728 107.500 376.031 101.175 C 377.847 97.697,379.333 94.809,379.333 94.759 C 379.333 94.708,368.306 94.667,354.829 94.667 L 330.324 94.667 332.079 91.342 L 333.833 88.017 358.115 87.925 L 382.397 87.833 385.726 81.417 L 389.056 75.000 356.507 75.000 L 323.957 75.000 311.145 100.848 M150.987 88.083 C 150.979 88.129,148.017 94.017,144.403 101.167 L 137.833 114.167 121.852 114.074 C 113.062 114.023,105.816 113.927,105.750 113.861 C 105.684 113.795,108.525 107.950,112.063 100.871 L 118.496 88.000 134.748 88.000 C 143.687 88.000,150.994 88.037,150.987 88.083 " stroke="none" fill="#3f3f46" fillRule="evenodd"></path></g></svg>